<svg id="Layer_1" enable-background="new 0 0 256 256" height="512" viewBox="0 0 256 256" width="512" xmlns="http://www.w3.org/2000/svg"><circle cx="128" cy="86.614" fill="#6bdddd" r="65.24"/><circle cx="128" cy="86.614" fill="#f9cfcf" r="55.611"/><path d="m128 153.854c-37.076 0-67.24-30.164-67.24-67.24s30.164-67.24 67.24-67.24 67.24 30.164 67.24 67.24-30.164 67.24-67.24 67.24zm0-130.48c-34.871 0-63.24 28.37-63.24 63.24s28.369 63.24 63.24 63.24 63.24-28.37 63.24-63.24-28.369-63.24-63.24-63.24z" fill="#3762cc"/><path d="m128 144.225c-31.767 0-57.611-25.844-57.611-57.61s25.844-57.611 57.611-57.611 57.611 25.844 57.611 57.61-25.844 57.611-57.611 57.611zm0-111.221c-29.562 0-53.611 24.049-53.611 53.61s24.05 53.61 53.611 53.61 53.611-24.049 53.611-53.61-24.049-53.61-53.611-53.61z" fill="#3762cc"/><path d="m224.295 204.08h-192.59c-10.341 0-18.724-8.383-18.724-18.724 0-10.341 8.383-18.724 18.724-18.724h192.589c10.341 0 18.724 8.383 18.724 18.724 0 10.341-8.383 18.724-18.723 18.724z" fill="#e0ebfc"/><g fill="#a4c9ff"><circle cx="38.125" cy="185.356" r="9.629"/><circle cx="68.083" cy="185.356" r="9.629"/><circle cx="98.042" cy="185.356" r="9.629"/><circle cx="128" cy="185.356" r="9.629"/><circle cx="157.958" cy="185.356" r="9.629"/><path d="m150.925 127.337h-45.85c-3.579 0-6.481-2.901-6.481-6.481v-38.424c0-3.579 2.901-6.481 6.481-6.481h45.85c3.579 0 6.481 2.901 6.481 6.481v38.424c-.001 3.579-2.902 6.481-6.481 6.481z"/></g><path d="m135.426 94.286c0-4.101-3.325-7.426-7.426-7.426s-7.426 3.325-7.426 7.426c0 2.606 1.345 4.894 3.375 6.219v11.872c0 2.237 1.813 4.05 4.05 4.05s4.05-1.813 4.05-4.05v-11.872c2.032-1.325 3.377-3.613 3.377-6.219z" fill="#4671c6"/><path d="m110 66.074c2.486 0 4.5-2.015 4.5-4.5 0-6.392 4.398-11.593 9.804-11.593h7.392c5.406 0 9.804 5.2 9.804 11.593v14.378h9v-14.378c0-11.355-8.436-20.593-18.804-20.593h-7.392c-10.368 0-18.804 9.238-18.804 20.593 0 2.485 2.014 4.5 4.5 4.5z" fill="#4671c6"/><path d="m150.925 129.337h-45.85c-4.676 0-8.48-3.804-8.48-8.48v-38.425c0-4.676 3.805-8.48 8.48-8.48h45.85c4.676 0 8.48 3.804 8.48 8.48v38.424c0 4.677-3.804 8.481-8.48 8.481zm-45.85-51.385c-2.471 0-4.48 2.01-4.48 4.48v38.424c0 2.471 2.01 4.48 4.48 4.48h45.85c2.471 0 4.48-2.01 4.48-4.48v-38.424c0-2.471-2.01-4.48-4.48-4.48z" fill="#3762cc"/><path d="m150.5 77.952h-9c-1.104 0-2-.896-2-2v-14.378c0-5.29-3.501-9.593-7.805-9.593h-7.391c-4.304 0-7.805 4.303-7.805 9.593 0 3.584-2.916 6.5-6.5 6.5s-6.5-2.916-6.5-6.5c0-12.458 9.333-22.593 20.805-22.593h7.391c11.472 0 20.805 10.135 20.805 22.593v14.378c0 1.104-.896 2-2 2zm-7-4h5v-12.378c0-10.252-7.538-18.593-16.805-18.593h-7.391c-9.267 0-16.805 8.341-16.805 18.593 0 1.378 1.121 2.5 2.5 2.5s2.5-1.122 2.5-2.5c0-7.495 5.296-13.593 11.805-13.593h7.391c6.509 0 11.805 6.098 11.805 13.593z" fill="#3762cc"/><path d="m224.295 206.081h-192.59c-11.427 0-20.724-9.297-20.724-20.724s9.297-20.724 20.724-20.724h192.59c11.427 0 20.724 9.297 20.724 20.724s-9.297 20.724-20.724 20.724zm-192.59-37.449c-9.222 0-16.724 7.502-16.724 16.724s7.502 16.724 16.724 16.724h192.59c9.222 0 16.724-7.502 16.724-16.724s-7.502-16.724-16.724-16.724z" fill="#3762cc"/><path d="m184.402 186.29 1.418 25.332c.103 1.846 2.342 2.701 3.65 1.393l1.728-1.728c.836-.836 2.191-.836 3.026 0l22.712 22.712c.836.836 2.191.836 3.026 0l14.405-14.405c.836-.836.836-2.191 0-3.026l-22.712-22.712c-.836-.836-.836-2.191 0-3.026l1.728-1.728c1.308-1.308.453-3.546-1.393-3.65l-25.332-1.418c-1.274-.072-2.327.982-2.256 2.256z" fill="#f9a7a7"/><path d="m218.449 236.624c-1.06 0-2.119-.403-2.927-1.21l-22.712-22.712c-.055-.054-.144-.053-.198 0l-1.729 1.728c-1.171 1.17-2.858 1.529-4.403.94-1.546-.59-2.564-1.983-2.657-3.636l-1.418-25.332c-.065-1.175.374-2.327 1.206-3.159.833-.832 2.002-1.268 3.158-1.206l25.332 1.418c1.653.093 3.047 1.111 3.637 2.657.591 1.546.23 3.234-.94 4.404l-1.729 1.729c-.047.046-.047.151 0 .197l22.712 22.712c.782.781 1.213 1.821 1.213 2.927 0 1.105-.431 2.146-1.213 2.927l-14.404 14.404c-.807.808-1.867 1.212-2.928 1.212zm-25.737-27.961c1.06 0 2.119.403 2.927 1.21l22.712 22.712c.056.055.145.054.198 0l14.404-14.404c.047-.047.047-.151 0-.198l-22.712-22.712c-.782-.781-1.213-1.821-1.213-2.927 0-1.105.431-2.146 1.213-2.927l1.729-1.729c.03-.03.064-.064.031-.148-.032-.085-.08-.088-.123-.09l-25.331-1.418c-.024-.004-.063-.003-.106.041-.045.044-.042.09-.041.107l1.418 25.332c.002.042.005.09.09.123.088.033.117 0 .148-.032l1.729-1.729c.806-.808 1.866-1.211 2.927-1.211z" fill="#3762cc"/></svg>